<svg xmlns="http://www.w3.org/2000/svg" xmlns:xlink="http://www.w3.org/1999/xlink" width="512" zoomAndPan="magnify" viewBox="0 0 384 383.999986" height="512" preserveAspectRatio="xMidYMid meet" version="1.0"><defs><clipPath id="4054f4fecb"><path d="M 60 161 L 326 161 L 326 374.945312 L 60 374.945312 Z M 60 161 " clip-rule="nonzero"/></clipPath><clipPath id="e6c5ca5171"><path d="M 289 101 L 381.039062 101 L 381.039062 213 L 289 213 Z M 289 101 " clip-rule="nonzero"/></clipPath><clipPath id="508007c671"><path d="M 3.039062 101 L 96 101 L 96 213 L 3.039062 213 Z M 3.039062 101 " clip-rule="nonzero"/></clipPath><clipPath id="9f210d5080"><path d="M 143.523438 229.496094 L 240.273438 229.496094 L 240.273438 326.246094 L 143.523438 326.246094 Z M 143.523438 229.496094 " clip-rule="nonzero"/></clipPath></defs><g clip-path="url(#4054f4fecb)"><path fill="#0f766e" d="M 243.957031 374.945312 C 238.726562 374.113281 231.050781 373.945312 224.0625 371.640625 C 202.433594 364.507812 181.492188 366.363281 159.675781 372.042969 C 112.136719 384.449219 69.804688 354.382812 61.867188 306.632812 C 61.339844 303.765625 60.992188 300.875 60.816406 297.964844 C 60.640625 295.054688 60.640625 292.140625 60.816406 289.230469 C 60.992188 286.320312 61.34375 283.429688 61.867188 280.5625 C 62.394531 277.695312 63.089844 274.867188 63.957031 272.082031 C 64.824219 269.300781 65.855469 266.578125 67.050781 263.917969 C 68.25 261.257812 69.601562 258.679688 71.109375 256.183594 C 72.617188 253.6875 74.269531 251.292969 76.066406 248.996094 C 77.867188 246.699219 79.796875 244.519531 81.855469 242.457031 C 88.441406 235.613281 95.761719 229.503906 102.296875 222.636719 C 107.070312 217.90625 111.21875 212.6875 114.75 206.972656 C 146.433594 146.503906 240.722656 146.671875 272.953125 206.617188 C 277.40625 213.628906 282.714844 219.917969 288.878906 225.488281 C 300.429688 236.847656 312.648438 247.542969 318.992188 263.042969 C 337.273438 307.582031 314.714844 361.46875 262.804688 373.566406 C 257.363281 374.800781 251.707031 374.421875 243.957031 374.945312 Z M 243.957031 374.945312 " fill-opacity="1" fill-rule="nonzero"/></g><path fill="#0f766e" d="M 87.15625 63.171875 C 85.351562 27.402344 116.984375 -9.628906 154.160156 19.75 C 185.203125 43.898438 189.382812 93.429688 169.464844 125.992188 C 156.179688 147.003906 132.671875 149.761719 114.109375 133.125 C 98.46875 119.21875 86.230469 95.261719 87.15625 63.171875 Z M 87.15625 63.171875 " fill-opacity="1" fill-rule="nonzero"/><path fill="#0f766e" d="M 206.210938 83.828125 C 205.738281 58.417969 213.34375 37.929688 231.050781 22.03125 C 255.675781 -0.0976562 280.273438 8.53125 293.347656 33.25 C 310.984375 68.070312 295.511719 122.855469 258.953125 140.421875 C 243.625 147.550781 230.765625 144.035156 220.332031 130.769531 C 210.609375 118.433594 206.140625 102.9375 206.210938 83.828125 Z M 206.210938 83.828125 " fill-opacity="1" fill-rule="nonzero"/><g clip-path="url(#e6c5ca5171)"><path fill="#0f766e" d="M 289.570312 168.824219 C 287.855469 104.53125 376.679688 72.515625 380.957031 136.59375 C 381.183594 141.316406 381.019531 146.023438 380.464844 150.71875 C 379.910156 155.414062 378.96875 160.03125 377.648438 164.570312 C 376.328125 169.109375 374.644531 173.507812 372.59375 177.765625 C 370.546875 182.027344 368.160156 186.089844 365.4375 189.953125 C 363.503906 192.832031 361.300781 195.488281 358.828125 197.921875 C 356.359375 200.355469 353.671875 202.515625 350.765625 204.410156 C 347.859375 206.300781 344.796875 207.886719 341.570312 209.164062 C 338.347656 210.4375 335.027344 211.378906 331.613281 211.988281 C 304.589844 217.621094 287.761719 194.492188 289.570312 168.824219 Z M 289.570312 168.824219 " fill-opacity="1" fill-rule="nonzero"/></g><g clip-path="url(#508007c671)"><path fill="#0f766e" d="M 95.738281 170.296875 C 96.097656 174.832031 95.746094 179.3125 94.675781 183.738281 C 93.609375 188.160156 91.878906 192.308594 89.484375 196.179688 C 73.394531 224.894531 39.238281 211.558594 22.410156 190.976562 C 5.917969 172.292969 -0.738281 149.855469 5.15625 126.277344 C 10.644531 104.199219 25.785156 97.757812 48.320312 103.578125 C 77.839844 111.304688 95.738281 137.164062 95.738281 170.296875 Z M 95.738281 170.296875 " fill-opacity="1" fill-rule="nonzero"/></g><g clip-path="url(#9f210d5080)"><path fill="#f97316" d="M 240.476562 277.972656 C 206.476562 285.972656 199.996094 292.453125 192 326.449219 C 184.003906 292.453125 177.519531 285.96875 143.523438 277.972656 C 177.519531 269.976562 184.003906 263.496094 192 229.496094 C 199.996094 263.496094 206.476562 269.976562 240.476562 277.972656 Z M 240.476562 277.972656 " fill-opacity="1" fill-rule="nonzero"/></g></svg>