<?xml version="1.0" encoding="UTF-8" standalone="no"?><!DOCTYPE svg PUBLIC "-//W3C//DTD SVG 1.1//EN" "http://www.w3.org/Graphics/SVG/1.1/DTD/svg11.dtd"><svg width="100%" height="100%" viewBox="0 0 300 72" version="1.1" xmlns="http://www.w3.org/2000/svg" xmlns:xlink="http://www.w3.org/1999/xlink" xml:space="preserve" xmlns:serif="http://www.serif.com/" style="fill-rule:evenodd;clip-rule:evenodd;stroke-linejoin:round;stroke-miterlimit:2;"><g><g><g><g><path d="M86.509,13.278l16.367,0c4.579,0 8.28,1.187 11.104,3.552c2.835,2.353 4.258,5.787 4.258,10.291c0,4.493 -1.433,8.023 -4.3,10.591c-2.867,2.557 -6.558,3.83 -11.061,3.83l-6.14,0l0,16.646l-10.227,0l0,-44.909Zm10.227,20.09l2.888,0c2.279,0 4.156,-0.46 5.627,-1.391c1.466,-0.925 2.204,-2.439 2.204,-4.536c0,-2.14 -0.738,-3.669 -2.204,-4.6c-1.471,-0.925 -3.348,-1.391 -5.627,-1.391l-2.888,0l0,11.917Z" style="fill:#fafaf8;fill-rule:nonzero;"/></g></g><g><g><path d="M133.466,30.266l0,13.287c0,2.755 0.417,4.718 1.262,5.884c0.84,1.155 2.252,1.733 4.236,1.733c1.995,0 3.407,-0.578 4.236,-1.733c0.84,-1.166 1.262,-3.129 1.262,-5.884l0,-13.287l9.649,0l0,15.619c0,4.653 -1.214,8.002 -3.637,10.056c-2.412,2.043 -6.247,3.06 -11.511,3.06c-5.253,0 -9.088,-1.016 -11.511,-3.06c-2.412,-2.054 -3.616,-5.402 -3.616,-10.056l0,-15.619l9.628,0Z" style="fill:#fafaf8;fill-rule:nonzero;"/></g></g><g><g><path d="M161.736,58.187l0,-27.921l9.628,0l0,4.022l0.107,0c0.07,-0.139 0.182,-0.321 0.342,-0.535c0.171,-0.225 0.524,-0.61 1.07,-1.155c0.54,-0.54 1.118,-1.027 1.733,-1.455c0.626,-0.439 1.423,-0.834 2.396,-1.177c0.984,-0.342 1.979,-0.513 2.995,-0.513c1.054,0 2.086,0.144 3.102,0.428c1.027,0.289 1.776,0.578 2.247,0.877l0.749,0.428l-4.022,8.173c-1.198,-1.011 -2.867,-1.519 -5.007,-1.519c-1.155,0 -2.156,0.257 -2.995,0.77c-0.829,0.503 -1.423,1.113 -1.776,1.84c-0.342,0.727 -0.588,1.348 -0.727,1.861c-0.144,0.503 -0.214,0.893 -0.214,1.177l0,14.699l-9.628,0Z" style="fill:#fafaf8;fill-rule:nonzero;"/></g></g><g><g><path d="M190.477,58.187l0,-27.921l9.628,0l0,4.022l0.107,0c0.07,-0.139 0.182,-0.321 0.342,-0.535c0.171,-0.225 0.524,-0.61 1.07,-1.155c0.54,-0.54 1.118,-1.027 1.733,-1.455c0.626,-0.439 1.423,-0.834 2.396,-1.177c0.984,-0.342 1.979,-0.513 2.995,-0.513c1.054,0 2.086,0.144 3.102,0.428c1.027,0.289 1.776,0.578 2.247,0.877l0.749,0.428l-4.022,8.173c-1.198,-1.011 -2.867,-1.519 -5.007,-1.519c-1.155,0 -2.156,0.257 -2.995,0.77c-0.829,0.503 -1.423,1.113 -1.776,1.84c-0.342,0.727 -0.588,1.348 -0.727,1.861c-0.144,0.503 -0.214,0.893 -0.214,1.177l0,14.699l-9.628,0Z" style="fill:#fafaf8;fill-rule:nonzero;"/></g></g><g><g><path d="M260.092,58.187l-14.1,0l-16.539,-19.042l0,19.042l-10.227,0l0,-44.909l10.227,0l0,18.357l15.405,-18.357l12.409,0l-18.079,21.288l20.903,23.62Z" style="fill:#0f766e;fill-rule:nonzero;"/></g></g><g><g><path d="M264.619,14.69c1.123,-1.123 2.466,-1.69 4.022,-1.69c1.567,0 2.91,0.567 4.022,1.69c1.123,1.129 1.69,2.477 1.69,4.044c0,1.557 -0.567,2.899 -1.69,4.022c-1.113,1.129 -2.455,1.69 -4.022,1.69c-1.557,0 -2.899,-0.562 -4.022,-1.69c-1.129,-1.123 -1.69,-2.466 -1.69,-4.022c0,-1.567 0.562,-2.915 1.69,-4.044Zm-0.92,15.576l0,27.921l9.628,0l0,-27.921l-9.628,0Z" style="fill:#0f766e;fill-rule:nonzero;"/></g></g><g><g><path d="M283.397,30.266l0,-10.398l9.628,0l0,10.398l5.884,0l0,7.339l-5.884,0l0,8.879c0,2.583 0.727,3.873 2.182,3.873c0.353,0 0.733,-0.07 1.134,-0.214c0.396,-0.155 0.711,-0.305 0.941,-0.449l0.321,-0.214l2.396,7.788c-2.07,1.155 -4.429,1.733 -7.082,1.733c-1.813,0 -3.375,-0.316 -4.686,-0.941c-1.3,-0.642 -2.284,-1.498 -2.953,-2.567c-0.674,-1.07 -1.155,-2.188 -1.455,-3.359c-0.289,-1.182 -0.428,-2.444 -0.428,-3.787l0,-10.74l-4.022,0l0,-7.339l4.022,0Z" style="fill:#0f766e;fill-rule:nonzero;"/></g></g></g><g><path d="M5.87,43.991l0.179,-0.226c0.099,-0.125 0.657,-1.204 1.244,-2.397c2.155,-4.389 5.79,-9.113 10.004,-12.998c1.911,-1.762 2.14,-2.032 2.14,-2.536c0,-0.375 -1.853,-4.806 -10.983,-25.714c0.673,-0.544 1.426,0.386 9.067,10.926c4.262,5.876 7.943,10.845 8.184,11.042c0.433,0.355 0.444,0.355 2.615,-0.009c3.594,-0.604 8.484,-0.838 12.24,-0.582c2.216,0.149 3.34,0.16 3.613,0.031c0.245,-0.114 3.069,-4.177 7.388,-10.629c6.183,-9.235 7.056,-10.462 7.543,-10.611l0.551,-0.169l-10.369,24.383l2.641,2.324c3.936,3.464 6.783,6.782 12.25,15.17c1.118,6.275 1.812,7.152 4.618,7.417c2.82,0.266 2.775,1.253 -0.068,1.474c-1.982,0.154 -2.525,0.491 -2.82,1.749c-0.349,1.483 0.123,2.221 1.743,2.727c2.439,0.761 2.579,0.83 2.639,1.302c0.092,0.733 -0.307,0.82 -2.51,0.548c-2.185,-0.268 -2.534,-0.165 -2.988,0.885c-0.383,0.887 -0.123,1.229 1.882,2.478c2.163,1.349 2.513,1.704 2.226,2.263c-0.284,0.549 -0.683,0.468 -3.161,-0.64c-2.725,-1.22 -2.532,-1.254 -4.821,0.859c-12.837,11.854 -38.456,11.936 -51.088,0.165c-2.187,-2.037 -2.082,-2.016 -4.327,-0.919c-1.859,0.907 -2.463,1.061 -2.826,0.723c-0.447,-0.412 -0.145,-0.767 1.53,-1.793c2.067,-1.267 2.428,-1.818 1.969,-3.016c-0.457,-1.195 -0.982,-1.34 -3.114,-0.861c-1.546,0.346 -1.854,0.37 -2.251,0.161c-0.913,-0.475 -0.266,-0.986 2.266,-1.791c1.681,-0.535 2.172,-1.229 1.906,-2.694c-0.246,-1.347 -0.698,-1.655 -2.621,-1.789c-3.085,-0.214 -3.156,-1.077 -0.126,-1.514c2.395,-0.345 2.767,-0.678 3.277,-2.942c0.2,-0.89 0.363,-1.882 0.363,-2.206l-0.002,-0.589Zm12.559,8.579c2.109,0.032 2.305,0.067 3.955,0.713c0.955,0.373 1.899,0.66 2.1,0.634c0.281,-0.035 0.375,-0.178 0.413,-0.627c0.255,-2.961 -5.676,-4.67 -8.244,-2.377c-1.471,1.314 -1.152,1.612 1.775,1.657Zm30.093,-2.42c-1.621,0.613 -3.418,2.774 -2.936,3.532c0.097,0.154 0.329,0.281 0.514,0.281c0.186,0 0.858,-0.201 1.494,-0.448c2.083,-0.805 3.422,-1.042 5.146,-0.912c1.959,0.149 2.328,-0.158 1.534,-1.272c-1.027,-1.445 -3.636,-1.98 -5.752,-1.18Z" style="fill:#ea8230;fill-rule:nonzero;"/><path d="M59.653,0.12c1.79,1.434 3.217,15.027 4.225,35.759l0.297,6.118c-5.467,-8.388 -8.315,-11.706 -12.25,-15.17l-2.641,-2.324l10.369,-24.383Z" style="fill:#ce5b16;fill-rule:nonzero;"/><path d="M5.87,43.991c0.614,-31.038 1.4,-43.19 2.463,-43.803l0.121,-0.069c9.13,20.908 10.983,25.339 10.983,25.714c0,0.504 -0.229,0.774 -2.14,2.536c-4.214,3.885 -7.849,8.609 -10.004,12.998c-0.586,1.193 -1.145,2.271 -1.244,2.397l-0.179,0.226Z" style="fill:#ce5b16;fill-rule:nonzero;"/><path d="M48.522,50.15c2.116,-0.8 4.724,-0.265 5.752,1.18c0.793,1.115 0.425,1.421 -1.534,1.272c-1.723,-0.13 -3.062,0.107 -5.146,0.912c-0.636,0.247 -1.308,0.448 -1.494,0.448c-0.184,0 -0.417,-0.127 -0.514,-0.281c-0.481,-0.758 1.315,-2.919 2.936,-3.532Z" style="fill:#ce5b16;fill-rule:nonzero;"/><path d="M18.429,52.57c-2.927,-0.045 -3.246,-0.343 -1.775,-1.657c2.568,-2.293 8.499,-0.584 8.244,2.377c-0.039,0.45 -0.132,0.593 -0.413,0.627c-0.2,0.025 -1.145,-0.261 -2.1,-0.634c-1.651,-0.646 -1.846,-0.68 -3.955,-0.713Z" style="fill:#ce5b16;fill-rule:nonzero;"/></g></g></svg>