<?xml version="1.0" encoding="UTF-8" standalone="no"?><!DOCTYPE svg PUBLIC "-//W3C//DTD SVG 1.1//EN" "http://www.w3.org/Graphics/SVG/1.1/DTD/svg11.dtd"><svg width="100%" height="100%" viewBox="0 0 8725 8863" version="1.1" xmlns="http://www.w3.org/2000/svg" xmlns:xlink="http://www.w3.org/1999/xlink" xml:space="preserve" xmlns:serif="http://www.serif.com/" style="fill-rule:evenodd;clip-rule:evenodd;stroke-linejoin:round;stroke-miterlimit:2;"><path d="M722.483,5414.917l22.071,-27.875c12.125,-15.417 80.912,-148.167 153.079,-295c265.208,-540.25 712.721,-1121.775 1231.404,-1599.983c235.188,-216.9 263.417,-250.15 263.417,-312.183c0,-46.196 -228.029,-591.571 -1351.879,-3165.145c82.9,-66.945 175.546,47.531 1116.096,1344.916c524.65,723.229 977.729,1334.879 1007.35,1359.2c53.279,43.737 54.671,43.737 321.867,-1.113c442.346,-74.308 1044.321,-103.096 1506.571,-71.633c272.75,18.3 411.125,19.638 444.708,3.796c30.208,-14.058 377.75,-514.137 909.333,-1308.325c761.042,-1136.718 868.583,-1287.79 928.417,-1306.088l67.792,-20.753l-1276.333,3001.354l325.083,286.075c484.458,426.438 834.958,834.8 1507.917,1867.3c137.583,772.333 223.083,880.333 568.375,912.917c347.125,32.792 341.583,154.208 -8.333,181.417c-243.917,18.958 -310.75,60.458 -347.125,215.333c-42.917,182.542 15.125,273.375 214.542,335.625c300.167,93.708 317.458,102.208 324.833,160.208c11.333,90.167 -37.792,100.875 -308.958,67.417c-268.958,-33.042 -311.917,-20.333 -367.792,108.875c-47.125,109.125 -15.083,151.292 231.625,305.042c266.208,166.042 309.333,209.75 273.958,278.5c-35,67.625 -84.083,57.583 -389.083,-78.792c-335.375,-150.167 -311.708,-154.417 -593.417,105.792c-1580.125,1459.167 -4733.579,1469.208 -6288.442,20.292c-269.183,-250.792 -256.258,-248.125 -532.6,-113.125c-228.825,111.583 -303.18,130.542 -347.911,89.042c-55.069,-50.667 -17.892,-94.417 188.269,-220.708c254.471,-155.958 298.804,-223.792 242.346,-371.292c-56.262,-147.083 -120.875,-164.917 -383.299,-106c-190.258,42.625 -228.229,45.5 -277.135,19.833c-112.326,-58.458 -32.803,-121.375 278.925,-220.458c206.956,-65.833 267.393,-151.292 234.593,-331.583c-30.221,-165.833 -85.888,-203.75 -322.664,-220.25c-379.72,-26.333 -388.467,-132.583 -15.507,-186.333c294.83,-42.417 340.555,-83.458 403.38,-362.167c24.65,-109.583 44.729,-231.625 44.729,-271.583l-0.2,-72.542Zm1545.917,1055.958c259.642,4 283.696,8.25 486.875,87.708c117.496,45.958 233.796,81.208 258.45,78.083c34.592,-4.25 46.121,-21.875 50.892,-77.208c31.412,-364.417 -698.604,-574.833 -1014.704,-292.542c-181.112,161.792 -141.75,198.375 218.488,203.958Zm3704.142,-297.917c-199.583,75.417 -420.667,341.417 -361.417,434.708c11.917,18.958 40.542,34.583 63.208,34.583c22.875,0 105.583,-24.75 183.917,-55.125c256.458,-99.083 421.25,-128.292 633.375,-112.25c241.167,18.292 286.5,-19.417 188.875,-156.625c-126.458,-177.875 -447.5,-243.708 -707.958,-145.292Z" style="fill:#ea8230;fill-rule:nonzero;"/><path d="M7342.708,14.73c220.292,176.511 396.042,1849.682 520.083,4401.603l36.583,753.125c-672.958,-1032.5 -1023.458,-1440.863 -1507.917,-1867.3l-325.083,-286.075l1276.333,-3001.353Z" style="fill:#ce5b16;fill-rule:nonzero;"/><path d="M722.483,5414.917c75.546,-3820.517 172.367,-5316.283 303.179,-5391.707l14.912,-8.48c1123.85,2573.574 1351.879,3118.953 1351.879,3165.145c0,62.033 -28.229,95.283 -263.417,312.183c-518.683,478.208 -966.196,1059.733 -1231.404,1599.983c-72.167,146.833 -140.954,279.583 -153.079,295l-22.071,27.875Z" style="fill:#ce5b16;fill-rule:nonzero;"/><path d="M5972.542,6172.958c260.458,-98.417 581.5,-32.583 707.958,145.292c97.625,137.208 52.292,174.917 -188.875,156.625c-212.125,-16.042 -376.917,13.167 -633.375,112.25c-78.333,30.375 -161.042,55.125 -183.917,55.125c-22.667,0 -51.292,-15.625 -63.208,-34.583c-59.25,-93.292 161.833,-359.292 361.417,-434.708Z" style="fill:#ce5b16;fill-rule:nonzero;"/><path d="M2268.4,6470.875c-360.238,-5.583 -399.6,-42.167 -218.488,-203.958c316.104,-282.292 1046.117,-71.875 1014.708,292.542c-4.775,55.333 -16.304,72.958 -50.896,77.208c-24.654,3.125 -140.954,-32.125 -258.45,-78.083c-203.179,-79.458 -227.233,-83.708 -486.875,-87.708Z" style="fill:#ce5b16;fill-rule:nonzero;"/></svg>