<?xml version="1.0" encoding="UTF-8" standalone="no"?>
<!DOCTYPE svg PUBLIC "-//W3C//DTD SVG 1.1//EN" "http://www.w3.org/Graphics/SVG/1.1/DTD/svg11.dtd">
<svg width="100%" height="100%" viewBox="0 0 300 72" version="1.1" xmlns="http://www.w3.org/2000/svg" xmlns:xlink="http://www.w3.org/1999/xlink" xml:space="preserve" xmlns:serif="http://www.serif.com/" style="fill-rule:evenodd;clip-rule:evenodd;stroke-linejoin:round;stroke-miterlimit:2;">
    <g>
        <g transform="matrix(0.246474,0,0,0.246474,-157.989627,-184.676185)">
            <g transform="matrix(5.555556,0,0,5.555556,978.703678,985.34835)">
                <g>
                    <path d="M2.391,-32.797L14.344,-32.797C17.688,-32.797 20.391,-31.93 22.453,-30.203C24.523,-28.484 25.562,-25.977 25.562,-22.688C25.562,-19.406 24.516,-16.828 22.422,-14.953C20.328,-13.086 17.633,-12.156 14.344,-12.156L9.859,-12.156L9.859,0L2.391,0L2.391,-32.797ZM9.859,-18.125L11.969,-18.125C13.633,-18.125 15.004,-18.461 16.078,-19.141C17.148,-19.816 17.688,-20.922 17.688,-22.453C17.688,-24.016 17.148,-25.133 16.078,-25.812C15.004,-26.488 13.633,-26.828 11.969,-26.828L9.859,-26.828L9.859,-18.125Z" style="fill:rgb(51,65,85);fill-rule:nonzero;"/>
                </g>
            </g>
            <g transform="matrix(5.555556,0,0,5.555556,1132.413267,985.34835)">
                <g>
                    <path d="M9.016,-20.391L9.016,-10.688C9.016,-8.676 9.32,-7.242 9.938,-6.391C10.551,-5.547 11.582,-5.125 13.031,-5.125C14.488,-5.125 15.52,-5.547 16.125,-6.391C16.738,-7.242 17.047,-8.676 17.047,-10.688L17.047,-20.391L24.094,-20.391L24.094,-8.984C24.094,-5.586 23.207,-3.141 21.438,-1.641C19.676,-0.148 16.875,0.594 13.031,0.594C9.195,0.594 6.395,-0.148 4.625,-1.641C2.863,-3.141 1.984,-5.586 1.984,-8.984L1.984,-20.391L9.016,-20.391Z" style="fill:rgb(51,65,85);fill-rule:nonzero;"/>
                </g>
            </g>
            <g transform="matrix(5.555556,0,0,5.555556,1283.914417,985.34835)">
                <g>
                    <path d="M2.391,0L2.391,-20.391L9.422,-20.391L9.422,-17.453L9.5,-17.453C9.551,-17.555 9.633,-17.688 9.75,-17.844C9.875,-18.008 10.133,-18.289 10.531,-18.688C10.926,-19.082 11.348,-19.438 11.797,-19.75C12.254,-20.07 12.836,-20.359 13.547,-20.609C14.266,-20.859 14.992,-20.984 15.734,-20.984C16.504,-20.984 17.258,-20.879 18,-20.672C18.75,-20.461 19.297,-20.25 19.641,-20.031L20.188,-19.719L17.25,-13.75C16.375,-14.488 15.156,-14.859 13.594,-14.859C12.75,-14.859 12.02,-14.672 11.406,-14.297C10.801,-13.93 10.367,-13.484 10.109,-12.953C9.859,-12.422 9.68,-11.969 9.578,-11.594C9.473,-11.227 9.422,-10.941 9.422,-10.734L9.422,0L2.391,0Z" style="fill:rgb(51,65,85);fill-rule:nonzero;"/>
                </g>
            </g>
            <g transform="matrix(5.555556,0,0,5.555556,1400.521983,985.34835)">
                <g>
                    <path d="M2.391,0L2.391,-20.391L9.422,-20.391L9.422,-17.453L9.5,-17.453C9.551,-17.555 9.633,-17.688 9.75,-17.844C9.875,-18.008 10.133,-18.289 10.531,-18.688C10.926,-19.082 11.348,-19.438 11.797,-19.75C12.254,-20.07 12.836,-20.359 13.547,-20.609C14.266,-20.859 14.992,-20.984 15.734,-20.984C16.504,-20.984 17.258,-20.879 18,-20.672C18.75,-20.461 19.297,-20.25 19.641,-20.031L20.188,-19.719L17.25,-13.75C16.375,-14.488 15.156,-14.859 13.594,-14.859C12.75,-14.859 12.02,-14.672 11.406,-14.297C10.801,-13.93 10.367,-13.484 10.109,-12.953C9.859,-12.422 9.68,-11.969 9.578,-11.594C9.473,-11.227 9.422,-10.941 9.422,-10.734L9.422,0L2.391,0Z" style="fill:rgb(51,65,85);fill-rule:nonzero;"/>
                </g>
            </g>
            <g transform="matrix(5.555556,0,0,5.555556,1517.169572,985.34835)">
                <g>
                    <path d="M32.234,0L21.938,0L9.859,-13.906L9.859,0L2.391,0L2.391,-32.797L9.859,-32.797L9.859,-19.391L21.109,-32.797L30.172,-32.797L16.969,-17.25L32.234,0Z" style="fill:rgb(15,118,110);fill-rule:nonzero;"/>
                </g>
            </g>
            <g transform="matrix(5.555556,0,0,5.555556,1697.601467,985.34835)">
                <g>
                    <path d="M3.062,-31.766C3.883,-32.586 4.863,-33 6,-33C7.145,-33 8.125,-32.586 8.938,-31.766C9.758,-30.941 10.172,-29.957 10.172,-28.812C10.172,-27.676 9.758,-26.695 8.938,-25.875C8.125,-25.051 7.145,-24.641 6,-24.641C4.863,-24.641 3.883,-25.051 3.062,-25.875C2.238,-26.695 1.828,-27.676 1.828,-28.812C1.828,-29.957 2.238,-30.941 3.062,-31.766ZM2.391,-20.391L2.391,0L9.422,0L9.422,-20.391L2.391,-20.391Z" style="fill:rgb(15,118,110);fill-rule:nonzero;"/>
                </g>
            </g>
            <g transform="matrix(5.555556,0,0,5.555556,1770.923344,985.34835)">
                <g>
                    <path d="M3.578,-20.391L3.578,-27.984L10.609,-27.984L10.609,-20.391L14.906,-20.391L14.906,-15.031L10.609,-15.031L10.609,-8.547C10.609,-6.66 11.141,-5.719 12.203,-5.719C12.461,-5.719 12.738,-5.77 13.031,-5.875C13.32,-5.988 13.551,-6.098 13.719,-6.203L13.953,-6.359L15.703,-0.672C14.191,0.172 12.469,0.594 10.531,0.594C9.207,0.594 8.066,0.363 7.109,-0.094C6.16,-0.562 5.441,-1.188 4.953,-1.969C4.461,-2.75 4.109,-3.566 3.891,-4.422C3.68,-5.285 3.578,-6.207 3.578,-7.188L3.578,-15.031L0.641,-15.031L0.641,-20.391L3.578,-20.391Z" style="fill:rgb(15,118,110);fill-rule:nonzero;"/>
                </g>
            </g>
        </g>
        <g transform="matrix(0.03385,0,0,0.03385,-0,-0)">
            <path d="M173.396,1299.58L178.693,1292.89C181.603,1289.19 198.112,1257.33 215.432,1222.09C279.082,1092.43 386.485,952.864 510.969,838.094C567.414,786.038 574.189,778.058 574.189,763.17C574.189,752.083 519.462,621.193 249.738,3.535C269.634,-12.532 291.869,14.943 517.601,326.315C643.517,499.89 752.256,646.686 759.365,652.523C772.152,663.02 772.486,663.02 836.613,652.256C942.776,634.422 1087.25,627.513 1198.19,635.064C1263.65,639.456 1296.86,639.777 1304.92,635.975C1312.17,632.601 1395.58,512.582 1523.16,321.977C1705.81,49.165 1731.62,12.907 1745.98,8.516L1762.25,3.535L1455.93,723.86L1533.95,792.518C1650.22,894.863 1734.34,992.87 1895.85,1240.67C1928.87,1426.03 1949.39,1451.95 2032.26,1459.77C2115.57,1467.64 2114.24,1496.78 2030.26,1503.31C1971.72,1507.86 1955.68,1517.82 1946.95,1554.99C1936.65,1598.8 1950.58,1620.6 1998.44,1635.54C2070.48,1658.03 2074.63,1660.07 2076.4,1673.99C2079.12,1695.63 2067.33,1698.2 2002.25,1690.17C1937.7,1682.24 1927.39,1685.29 1913.98,1716.3C1902.67,1742.49 1910.36,1752.61 1969.57,1789.51C2033.46,1829.36 2043.81,1839.85 2035.32,1856.35C2026.92,1872.58 2015.14,1870.17 1941.94,1837.44C1861.45,1801.4 1867.13,1800.38 1799.52,1862.83C1420.29,2213.03 663.461,2215.44 290.294,1867.7C225.69,1807.51 228.792,1808.15 162.47,1840.55C107.552,1867.33 89.707,1871.88 78.971,1861.92C65.755,1849.76 74.677,1839.26 124.156,1808.95C185.229,1771.52 195.869,1755.24 182.319,1719.84C168.816,1684.54 153.309,1680.26 90.327,1694.4C44.665,1704.63 35.552,1705.32 23.815,1699.16C-3.143,1685.13 15.942,1670.03 90.757,1646.25C140.426,1630.45 154.931,1609.94 147.059,1566.67C139.806,1526.87 126.446,1517.77 69.62,1513.81C-21.513,1507.49 -23.613,1481.99 65.898,1469.09C136.657,1458.91 147.631,1449.06 162.709,1382.17C168.625,1355.87 173.444,1326.58 173.444,1316.99L173.396,1299.58ZM544.416,1553.01C606.73,1553.97 612.503,1554.99 661.266,1574.06C689.465,1585.09 717.377,1593.55 723.294,1592.8C731.596,1591.78 734.363,1587.55 735.508,1574.27C743.047,1486.81 567.843,1436.31 491.979,1504.06C448.512,1542.89 457.959,1551.67 544.416,1553.01ZM1433.41,1481.51C1385.51,1499.61 1332.45,1563.45 1346.67,1585.84C1349.53,1590.39 1356.4,1594.14 1361.84,1594.14C1367.33,1594.14 1387.18,1588.2 1405.98,1580.91C1467.53,1557.13 1507.08,1550.12 1557.99,1553.97C1615.87,1558.36 1626.75,1549.31 1603.32,1516.38C1572.97,1473.69 1495.92,1457.89 1433.41,1481.51Z" style="fill:rgb(234,130,48);fill-rule:nonzero;"/>
            <path d="M1762.25,3.535C1815.12,45.898 1857.3,447.459 1887.07,1059.92L1895.85,1240.67C1734.34,992.87 1650.22,894.863 1533.95,792.518L1455.93,723.86L1762.25,3.535Z" style="fill:rgb(206,91,22);fill-rule:nonzero;"/>
            <path d="M173.396,1299.58C191.527,382.656 214.764,23.672 246.159,5.57L249.738,3.535C519.462,621.193 574.189,752.084 574.189,763.17C574.189,778.058 567.414,786.038 510.969,838.094C386.485,952.864 279.082,1092.43 215.432,1222.09C198.112,1257.33 181.603,1289.19 178.693,1292.89L173.396,1299.58Z" style="fill:rgb(206,91,22);fill-rule:nonzero;"/>
            <path d="M1433.41,1481.51C1495.92,1457.89 1572.97,1473.69 1603.32,1516.38C1626.75,1549.31 1615.87,1558.36 1557.99,1553.97C1507.08,1550.12 1467.53,1557.13 1405.98,1580.91C1387.18,1588.2 1367.33,1594.14 1361.84,1594.14C1356.4,1594.14 1349.53,1590.39 1346.67,1585.84C1332.45,1563.45 1385.51,1499.61 1433.41,1481.51Z" style="fill:rgb(206,91,22);fill-rule:nonzero;"/>
            <path d="M544.416,1553.01C457.959,1551.67 448.512,1542.89 491.979,1504.06C567.844,1436.31 743.047,1486.81 735.509,1574.27C734.363,1587.55 731.596,1591.78 723.294,1592.8C717.377,1593.55 689.465,1585.09 661.266,1574.06C612.503,1554.99 606.73,1553.97 544.416,1553.01Z" style="fill:rgb(206,91,22);fill-rule:nonzero;"/>
        </g>
    </g>
</svg>
